solid terrain
facet normal -0.024250 -0.041091 -0.998861
outer loop
vertex 0.750000 -0.750000 -1.004215
vertex 1.000000 -0.750000 -1.010285
vertex 1.000000 -1.000000 -1.000000
endloop
endfacet
facet normal 0.000000 -0.016859 -0.999858
outer loop
vertex 0.750000 -0.750000 -1.004215
vertex 1.000000 -1.000000 -1.000000
vertex 0.750000 -1.000000 -1.000000
endloop
endfacet
facet normal -0.443104 -0.488797 -0.751489
outer loop
vertex -0.250000 -0.750000 -0.822242
vertex -0.000000 -0.750000 -0.969651
vertex -0.000000 -1.000000 -0.807041
endloop
endfacet
facet normal -0.120582 -0.179942 -0.976259
outer loop
vertex -0.250000 -0.750000 -0.822242
vertex -0.000000 -1.000000 -0.807041
vertex -0.250000 -1.000000 -0.776163
endloop
endfacet
facet normal -0.702447 0.195577 -0.684337
outer loop
vertex -0.250000 0.250000 -1.028510
vertex -0.000000 0.250000 -1.285126
vertex -0.000000 0.000000 -1.356573
endloop
endfacet
facet normal -0.560580 0.394713 -0.727978
outer loop
vertex -0.250000 0.250000 -1.028510
vertex -0.000000 0.000000 -1.356573
vertex -0.250000 0.000000 -1.164061
endloop
endfacet
facet normal 0.718016 0.025483 -0.695560
outer loop
vertex 0.750000 0.250000 -1.299716
vertex 1.000000 0.250000 -1.041645
vertex 1.000000 0.000000 -1.050804
endloop
endfacet
facet normal 0.761426 0.128877 -0.635312
outer loop
vertex 0.750000 0.250000 -1.299716
vertex 1.000000 0.000000 -1.050804
vertex 0.750000 0.000000 -1.350430
endloop
endfacet
facet normal -0.003102 0.085318 -0.996349
outer loop
vertex 0.250000 0.250000 -1.375672
vertex 0.500000 0.250000 -1.376451
vertex 0.500000 0.000000 -1.397858
endloop
endfacet
facet normal 0.164177 0.248885 -0.954517
outer loop
vertex 0.250000 0.250000 -1.375672
vertex 0.500000 0.000000 -1.397858
vertex 0.250000 0.000000 -1.440858
endloop
endfacet
facet normal -0.108058 0.267877 -0.957374
outer loop
vertex 0.250000 0.750000 -1.215000
vertex 0.500000 0.750000 -1.243217
vertex 0.500000 0.500000 -1.313168
endloop
endfacet
facet normal -0.107787 0.268133 -0.957333
outer loop
vertex 0.250000 0.750000 -1.215000
vertex 0.500000 0.500000 -1.313168
vertex 0.250000 0.500000 -1.285021
endloop
endfacet
facet normal 0.693720 0.042652 -0.718981
outer loop
vertex 0.750000 0.750000 -1.276436
vertex 1.000000 0.750000 -1.035220
vertex 1.000000 0.500000 -1.050051
endloop
endfacet
facet normal 0.716199 0.089436 -0.692142
outer loop
vertex 0.750000 0.750000 -1.276436
vertex 1.000000 0.500000 -1.050051
vertex 0.750000 0.500000 -1.308740
endloop
endfacet
facet normal -0.308379 0.057996 -0.949494
outer loop
vertex -0.750000 0.250000 -0.879763
vertex -0.500000 0.250000 -0.960958
vertex -0.500000 0.000000 -0.976228
endloop
endfacet
facet normal -0.515177 -0.192949 -0.835083
outer loop
vertex -0.750000 0.250000 -0.879763
vertex -0.500000 0.000000 -0.976228
vertex -0.750000 0.000000 -0.821999
endloop
endfacet
facet normal -0.009779 -0.042150 -0.999063
outer loop
vertex -0.750000 0.750000 -0.997553
vertex -0.500000 0.750000 -1.000000
vertex -0.500000 0.500000 -0.989453
endloop
endfacet
facet normal -0.077516 -0.109624 -0.990946
outer loop
vertex -0.750000 0.750000 -0.997553
vertex -0.500000 0.500000 -0.989453
vertex -0.750000 0.500000 -0.969896
endloop
endfacet
facet normal -0.202669 0.085588 -0.975500
outer loop
vertex -0.250000 0.750000 -1.000000
vertex -0.000000 0.750000 -1.051940
vertex -0.000000 0.500000 -1.073874
endloop
endfacet
facet normal -0.283384 0.000000 -0.959006
outer loop
vertex -0.250000 0.750000 -1.000000
vertex -0.000000 0.500000 -1.073874
vertex -0.250000 0.500000 -1.000000
endloop
endfacet
facet normal 0.090939 0.300921 -0.949303
outer loop
vertex -0.750000 -0.750000 -0.773644
vertex -0.500000 -0.750000 -0.749696
vertex -0.500000 -1.000000 -0.828943
endloop
endfacet
facet normal 0.387183 0.550744 -0.739439
outer loop
vertex -0.750000 -0.750000 -0.773644
vertex -0.500000 -1.000000 -0.828943
vertex -0.750000 -1.000000 -0.959848
endloop
endfacet
facet normal -0.530624 -0.447490 -0.719855
outer loop
vertex -0.750000 -0.250000 -0.767011
vertex -0.500000 -0.250000 -0.951293
vertex -0.500000 -0.500000 -0.795883
endloop
endfacet
facet normal -0.237277 -0.126036 -0.963231
outer loop
vertex -0.750000 -0.250000 -0.767011
vertex -0.500000 -0.500000 -0.795883
vertex -0.750000 -0.500000 -0.734300
endloop
endfacet
facet normal -0.465774 -0.553780 -0.690204
outer loop
vertex -0.250000 -0.250000 -1.166940
vertex -0.000000 -0.250000 -1.335649
vertex -0.000000 -0.500000 -1.135064
endloop
endfacet
facet normal -0.213413 -0.330632 -0.919314
outer loop
vertex -0.250000 -0.250000 -1.166940
vertex -0.000000 -0.500000 -1.135064
vertex -0.250000 -0.500000 -1.077028
endloop
endfacet
facet normal 0.108859 -0.014277 -0.993955
outer loop
vertex 0.250000 -0.750000 -1.030971
vertex 0.500000 -0.750000 -1.003591
vertex 0.500000 -1.000000 -1.000000
endloop
endfacet
facet normal -0.041027 -0.163146 -0.985748
outer loop
vertex 0.250000 -0.750000 -1.030971
vertex 0.500000 -1.000000 -1.000000
vertex 0.250000 -1.000000 -0.989595
endloop
endfacet
facet normal 0.191868 -0.659198 -0.727079
outer loop
vertex 0.250000 -0.250000 -1.404968
vertex 0.500000 -0.250000 -1.338995
vertex 0.500000 -0.500000 -1.112336
endloop
endfacet
facet normal 0.307112 -0.577923 -0.756100
outer loop
vertex 0.250000 -0.250000 -1.404968
vertex 0.500000 -0.500000 -1.112336
vertex 0.250000 -0.500000 -1.213881
endloop
endfacet
facet normal 0.753183 -0.049161 -0.655972
outer loop
vertex 0.750000 -0.250000 -1.337537
vertex 1.000000 -0.250000 -1.050489
vertex 1.000000 -0.500000 -1.031753
endloop
endfacet
facet normal 0.355515 -0.559897 -0.748414
outer loop
vertex 0.750000 -0.250000 -1.337537
vertex 1.000000 -0.500000 -1.031753
vertex 0.750000 -0.500000 -1.150509
endloop
endfacet
facet normal 0.004670 -0.599025 -0.800716
outer loop
vertex 0.500000 -0.250000 -1.338995
vertex 0.750000 -0.250000 -1.337537
vertex 0.750000 -0.500000 -1.150509
endloop
endfacet
facet normal -0.112406 -0.667420 -0.736149
outer loop
vertex 0.500000 -0.250000 -1.338995
vertex 0.750000 -0.500000 -1.150509
vertex 0.500000 -0.500000 -1.112336
endloop
endfacet
facet normal 0.186150 -0.050603 -0.981217
outer loop
vertex 0.500000 0.000000 -1.397858
vertex 0.750000 0.000000 -1.350430
vertex 0.750000 -0.250000 -1.337537
endloop
endfacet
facet normal 0.005676 -0.229181 -0.973367
outer loop
vertex 0.500000 0.000000 -1.397858
vertex 0.750000 -0.250000 -1.337537
vertex 0.500000 -0.250000 -1.338995
endloop
endfacet
facet normal 0.767829 -0.000807 -0.640655
outer loop
vertex 0.750000 0.000000 -1.350430
vertex 1.000000 0.000000 -1.050804
vertex 1.000000 -0.250000 -1.050489
endloop
endfacet
facet normal 0.753662 -0.033851 -0.656390
outer loop
vertex 0.750000 0.000000 -1.350430
vertex 1.000000 -0.250000 -1.050489
vertex 0.750000 -0.250000 -1.337537
endloop
endfacet
facet normal -0.215134 -0.593051 -0.775892
outer loop
vertex -0.000000 -0.250000 -1.335649
vertex 0.250000 -0.250000 -1.404968
vertex 0.250000 -0.500000 -1.213881
endloop
endfacet
facet normal -0.238789 -0.607704 -0.757413
outer loop
vertex -0.000000 -0.250000 -1.335649
vertex 0.250000 -0.500000 -1.213881
vertex -0.000000 -0.500000 -1.135064
endloop
endfacet
facet normal -0.316557 -0.134798 -0.938947
outer loop
vertex -0.000000 0.000000 -1.356573
vertex 0.250000 0.000000 -1.440858
vertex 0.250000 -0.250000 -1.404968
endloop
endfacet
facet normal -0.266328 -0.080393 -0.960524
outer loop
vertex -0.000000 0.000000 -1.356573
vertex 0.250000 -0.250000 -1.404968
vertex -0.000000 -0.250000 -1.335649
endloop
endfacet
facet normal 0.165124 -0.226039 -0.960021
outer loop
vertex 0.250000 0.000000 -1.440858
vertex 0.500000 0.000000 -1.397858
vertex 0.500000 -0.250000 -1.338995
endloop
endfacet
facet normal 0.252731 -0.137493 -0.957717
outer loop
vertex 0.250000 0.000000 -1.440858
vertex 0.500000 -0.250000 -1.338995
vertex 0.250000 -0.250000 -1.404968
endloop
endfacet
facet normal -0.235202 -0.158703 -0.958902
outer loop
vertex -0.000000 -0.750000 -0.969651
vertex 0.250000 -0.750000 -1.030971
vertex 0.250000 -1.000000 -0.989595
endloop
endfacet
facet normal -0.522078 -0.465040 -0.714963
outer loop
vertex -0.000000 -0.750000 -0.969651
vertex 0.250000 -1.000000 -0.989595
vertex -0.000000 -1.000000 -0.807041
endloop
endfacet
facet normal -0.246582 -0.572241 -0.782137
outer loop
vertex -0.000000 -0.500000 -1.135064
vertex 0.250000 -0.500000 -1.213881
vertex 0.250000 -0.750000 -1.030971
endloop
endfacet
facet normal -0.200410 -0.540606 -0.817056
outer loop
vertex -0.000000 -0.500000 -1.135064
vertex 0.250000 -0.750000 -1.030971
vertex -0.000000 -0.750000 -0.969651
endloop
endfacet
facet normal 0.349043 -0.373790 -0.859331
outer loop
vertex 0.250000 -0.500000 -1.213881
vertex 0.500000 -0.500000 -1.112336
vertex 0.500000 -0.750000 -1.003591
endloop
endfacet
facet normal 0.088046 -0.588180 -0.803923
outer loop
vertex 0.250000 -0.500000 -1.213881
vertex 0.500000 -0.750000 -1.003591
vertex 0.250000 -0.750000 -1.030971
endloop
endfacet
facet normal -0.630214 -0.262763 -0.730606
outer loop
vertex -0.500000 -0.250000 -0.951293
vertex -0.250000 -0.250000 -1.166940
vertex -0.250000 -0.500000 -1.077028
endloop
endfacet
facet normal -0.690678 -0.381790 -0.614166
outer loop
vertex -0.500000 -0.250000 -0.951293
vertex -0.250000 -0.500000 -1.077028
vertex -0.500000 -0.500000 -0.795883
endloop
endfacet
facet normal -0.600655 0.009207 -0.799455
outer loop
vertex -0.500000 0.000000 -0.976228
vertex -0.250000 0.000000 -1.164061
vertex -0.250000 -0.250000 -1.166940
endloop
endfacet
facet normal -0.651311 -0.075312 -0.755065
outer loop
vertex -0.500000 0.000000 -0.976228
vertex -0.250000 -0.250000 -1.166940
vertex -0.500000 -0.250000 -0.951293
endloop
endfacet
facet normal -0.608781 -0.066169 -0.790574
outer loop
vertex -0.250000 0.000000 -1.164061
vertex -0.000000 0.000000 -1.356573
vertex -0.000000 -0.250000 -1.335649
endloop
endfacet
facet normal -0.559354 0.009546 -0.828874
outer loop
vertex -0.250000 0.000000 -1.164061
vertex -0.000000 -0.250000 -1.335649
vertex -0.250000 -0.250000 -1.166940
endloop
endfacet
facet normal -0.066181 -0.129457 -0.989374
outer loop
vertex -1.000000 -0.250000 -0.750288
vertex -0.750000 -0.250000 -0.767011
vertex -0.750000 -0.500000 -0.734300
endloop
endfacet
facet normal 0.276537 0.216659 -0.936262
outer loop
vertex -1.000000 -0.250000 -0.750288
vertex -0.750000 -0.500000 -0.734300
vertex -1.000000 -0.500000 -0.808140
endloop
endfacet
facet normal -0.249750 -0.208009 -0.945704
outer loop
vertex -1.000000 0.000000 -0.755977
vertex -0.750000 0.000000 -0.821999
vertex -0.750000 -0.250000 -0.767011
endloop
endfacet
facet normal -0.066726 -0.022698 -0.997513
outer loop
vertex -1.000000 0.000000 -0.755977
vertex -0.750000 -0.250000 -0.767011
vertex -1.000000 -0.250000 -0.750288
endloop
endfacet
facet normal -0.523161 -0.084584 -0.848026
outer loop
vertex -0.750000 0.000000 -0.821999
vertex -0.500000 0.000000 -0.976228
vertex -0.500000 -0.250000 -0.951293
endloop
endfacet
facet normal -0.584261 -0.174338 -0.792619
outer loop
vertex -0.750000 0.000000 -0.821999
vertex -0.500000 -0.250000 -0.951293
vertex -0.750000 -0.250000 -0.767011
endloop
endfacet
facet normal 0.519629 0.510358 -0.685215
outer loop
vertex -1.000000 -0.750000 -0.963231
vertex -0.750000 -0.750000 -0.773644
vertex -0.750000 -1.000000 -0.959848
endloop
endfacet
facet normal 0.156929 0.143709 -0.977098
outer loop
vertex -1.000000 -0.750000 -0.963231
vertex -0.750000 -1.000000 -0.959848
vertex -1.000000 -1.000000 -1.000000
endloop
endfacet
facet normal 0.280093 0.149243 -0.948301
outer loop
vertex -1.000000 -0.500000 -0.808140
vertex -0.750000 -0.500000 -0.734300
vertex -0.750000 -0.750000 -0.773644
endloop
endfacet
facet normal 0.541684 0.443122 -0.714298
outer loop
vertex -1.000000 -0.500000 -0.808140
vertex -0.750000 -0.750000 -0.773644
vertex -1.000000 -0.750000 -0.963231
endloop
endfacet
facet normal -0.235426 -0.176569 -0.955719
outer loop
vertex -0.750000 -0.500000 -0.734300
vertex -0.500000 -0.500000 -0.795883
vertex -0.500000 -0.750000 -0.749696
endloop
endfacet
facet normal 0.094210 0.154775 -0.983448
outer loop
vertex -0.750000 -0.500000 -0.734300
vertex -0.500000 -0.750000 -0.749696
vertex -0.750000 -0.750000 -0.773644
endloop
endfacet
facet normal 0.000000 0.000000 -1.000000
outer loop
vertex -0.500000 0.750000 -1.000000
vertex -0.250000 0.750000 -1.000000
vertex -0.250000 0.500000 -1.000000
endloop
endfacet
facet normal -0.042115 -0.042115 -0.998225
outer loop
vertex -0.500000 0.750000 -1.000000
vertex -0.250000 0.500000 -1.000000
vertex -0.500000 0.500000 -0.989453
endloop
endfacet
facet normal 0.000000 0.000000 -1.000000
outer loop
vertex -0.500000 1.000000 -1.000000
vertex -0.250000 1.000000 -1.000000
vertex -0.250000 0.750000 -1.000000
endloop
endfacet
facet normal 0.000000 0.000000 -1.000000
outer loop
vertex -0.500000 1.000000 -1.000000
vertex -0.250000 0.750000 -1.000000
vertex -0.500000 0.750000 -1.000000
endloop
endfacet
facet normal -0.025983 0.178374 -0.983620
outer loop
vertex -0.250000 1.000000 -1.000000
vertex -0.000000 1.000000 -1.006604
vertex -0.000000 0.750000 -1.051940
endloop
endfacet
facet normal -0.203416 0.000000 -0.979092
outer loop
vertex -0.250000 1.000000 -1.000000
vertex -0.000000 0.750000 -1.051940
vertex -0.250000 0.750000 -1.000000
endloop
endfacet
facet normal -0.033401 -0.109894 -0.993382
outer loop
vertex -1.000000 0.750000 -0.989147
vertex -0.750000 0.750000 -0.997553
vertex -0.750000 0.500000 -0.969896
endloop
endfacet
facet normal -0.269839 -0.339232 -0.901171
outer loop
vertex -1.000000 0.750000 -0.989147
vertex -0.750000 0.500000 -0.969896
vertex -1.000000 0.500000 -0.895038
endloop
endfacet
facet normal -0.000000 -0.009787 -0.999952
outer loop
vertex -1.000000 1.000000 -1.000000
vertex -0.750000 1.000000 -1.000000
vertex -0.750000 0.750000 -0.997553
endloop
endfacet
facet normal -0.033573 -0.043346 -0.998496
outer loop
vertex -1.000000 1.000000 -1.000000
vertex -0.750000 0.750000 -0.997553
vertex -1.000000 0.750000 -0.989147
endloop
endfacet
facet normal -0.000000 0.000000 -1.000000
outer loop
vertex -0.750000 1.000000 -1.000000
vertex -0.500000 1.000000 -1.000000
vertex -0.500000 0.750000 -1.000000
endloop
endfacet
facet normal -0.009787 -0.009787 -0.999904
outer loop
vertex -0.750000 1.000000 -1.000000
vertex -0.500000 0.750000 -1.000000
vertex -0.750000 0.750000 -0.997553
endloop
endfacet
facet normal -0.262345 -0.217237 -0.940204
outer loop
vertex -1.000000 0.250000 -0.810005
vertex -0.750000 0.250000 -0.879763
vertex -0.750000 0.000000 -0.821999
endloop
endfacet
facet normal -0.249938 -0.204532 -0.946413
outer loop
vertex -1.000000 0.250000 -0.810005
vertex -0.750000 0.000000 -0.821999
vertex -1.000000 0.000000 -0.755977
endloop
endfacet
facet normal -0.271132 -0.326461 -0.905489
outer loop
vertex -1.000000 0.500000 -0.895038
vertex -0.750000 0.500000 -0.969896
vertex -0.750000 0.250000 -0.879763
endloop
endfacet
facet normal -0.255406 -0.311336 -0.915335
outer loop
vertex -1.000000 0.500000 -0.895038
vertex -0.750000 0.250000 -0.879763
vertex -1.000000 0.250000 -0.810005
endloop
endfacet
facet normal -0.077487 -0.112904 -0.990580
outer loop
vertex -0.750000 0.500000 -0.969896
vertex -0.500000 0.500000 -0.989453
vertex -0.500000 0.250000 -0.960958
endloop
endfacet
facet normal -0.292197 -0.324364 -0.899671
outer loop
vertex -0.750000 0.500000 -0.969896
vertex -0.500000 0.250000 -0.960958
vertex -0.750000 0.250000 -0.879763
endloop
endfacet
facet normal -0.130650 0.127053 -0.983254
outer loop
vertex 0.500000 0.750000 -1.243217
vertex 0.750000 0.750000 -1.276436
vertex 0.750000 0.500000 -1.308740
endloop
endfacet
facet normal 0.017054 0.269415 -0.962873
outer loop
vertex 0.500000 0.750000 -1.243217
vertex 0.750000 0.500000 -1.308740
vertex 0.500000 0.500000 -1.313168
endloop
endfacet
facet normal 0.013121 0.675103 -0.737606
outer loop
vertex 0.500000 1.000000 -1.052068
vertex 0.750000 1.000000 -1.047621
vertex 0.750000 0.750000 -1.276436
endloop
endfacet
facet normal -0.104973 0.604040 -0.790010
outer loop
vertex 0.500000 1.000000 -1.052068
vertex 0.750000 0.750000 -1.276436
vertex 0.500000 0.750000 -1.243217
endloop
endfacet
facet normal 0.184971 0.136698 -0.973190
outer loop
vertex 0.750000 1.000000 -1.047621
vertex 1.000000 1.000000 -1.000104
vertex 1.000000 0.750000 -1.035220
endloop
endfacet
facet normal 0.579871 0.550060 -0.600986
outer loop
vertex 0.750000 1.000000 -1.047621
vertex 1.000000 0.750000 -1.035220
vertex 0.750000 0.750000 -1.276436
endloop
endfacet
facet normal -0.531867 0.228393 -0.815447
outer loop
vertex -0.000000 0.750000 -1.051940
vertex 0.250000 0.750000 -1.215000
vertex 0.250000 0.500000 -1.285021
endloop
endfacet
facet normal -0.643799 0.066879 -0.762266
outer loop
vertex -0.000000 0.750000 -1.051940
vertex 0.250000 0.500000 -1.285021
vertex -0.000000 0.500000 -1.073874
endloop
endfacet
facet normal -0.139771 0.547808 -0.824846
outer loop
vertex -0.000000 1.000000 -1.006604
vertex 0.250000 1.000000 -1.048966
vertex 0.250000 0.750000 -1.215000
endloop
endfacet
facet normal -0.540111 0.150169 -0.828088
outer loop
vertex -0.000000 1.000000 -1.006604
vertex 0.250000 0.750000 -1.215000
vertex -0.000000 0.750000 -1.051940
endloop
endfacet
facet normal -0.009855 0.607367 -0.794360
outer loop
vertex 0.250000 1.000000 -1.048966
vertex 0.500000 1.000000 -1.052068
vertex 0.500000 0.750000 -1.243217
endloop
endfacet
facet normal -0.093611 0.550809 -0.829365
outer loop
vertex 0.250000 1.000000 -1.048966
vertex 0.500000 0.750000 -1.243217
vertex 0.250000 0.750000 -1.215000
endloop
endfacet
facet normal -0.330744 0.238108 -0.913188
outer loop
vertex -0.000000 0.250000 -1.285126
vertex 0.250000 0.250000 -1.375672
vertex 0.250000 0.000000 -1.440858
endloop
endfacet
facet normal -0.308364 0.261398 -0.914649
outer loop
vertex -0.000000 0.250000 -1.285126
vertex 0.250000 0.000000 -1.440858
vertex -0.000000 0.000000 -1.356573
endloop
endfacet
facet normal -0.621825 0.266968 -0.736248
outer loop
vertex -0.000000 0.500000 -1.073874
vertex 0.250000 0.500000 -1.285021
vertex 0.250000 0.250000 -1.375672
endloop
endfacet
facet normal -0.266629 0.622066 -0.736167
outer loop
vertex -0.000000 0.500000 -1.073874
vertex 0.250000 0.250000 -1.375672
vertex -0.000000 0.250000 -1.285126
endloop
endfacet
facet normal -0.108504 0.243941 -0.963701
outer loop
vertex 0.250000 0.500000 -1.285021
vertex 0.500000 0.500000 -1.313168
vertex 0.500000 0.250000 -1.376451
endloop
endfacet
facet normal -0.002926 0.340886 -0.940100
outer loop
vertex 0.250000 0.500000 -1.285021
vertex 0.500000 0.250000 -1.376451
vertex 0.250000 0.250000 -1.375672
endloop
endfacet
facet normal 0.288061 0.190380 -0.938497
outer loop
vertex 0.500000 0.250000 -1.376451
vertex 0.750000 0.250000 -1.299716
vertex 0.750000 0.000000 -1.350430
endloop
endfacet
facet normal 0.185733 0.083834 -0.979017
outer loop
vertex 0.500000 0.250000 -1.376451
vertex 0.750000 0.000000 -1.350430
vertex 0.500000 0.000000 -1.397858
endloop
endfacet
facet normal 0.017697 -0.036068 -0.999193
outer loop
vertex 0.500000 0.500000 -1.313168
vertex 0.750000 0.500000 -1.308740
vertex 0.750000 0.250000 -1.299716
endloop
endfacet
facet normal 0.285196 0.235199 -0.929164
outer loop
vertex 0.500000 0.500000 -1.313168
vertex 0.750000 0.250000 -1.299716
vertex 0.500000 0.250000 -1.376451
endloop
endfacet
facet normal 0.718885 -0.023360 -0.694737
outer loop
vertex 0.750000 0.500000 -1.308740
vertex 1.000000 0.500000 -1.050051
vertex 1.000000 0.250000 -1.041645
endloop
endfacet
facet normal 0.718023 -0.025108 -0.695566
outer loop
vertex 0.750000 0.500000 -1.308740
vertex 1.000000 0.250000 -1.041645
vertex 0.750000 0.250000 -1.299716
endloop
endfacet
facet normal -0.231108 0.463744 -0.855295
outer loop
vertex -0.500000 0.250000 -0.960958
vertex -0.250000 0.250000 -1.028510
vertex -0.250000 0.000000 -1.164061
endloop
endfacet
facet normal -0.599966 0.048776 -0.798537
outer loop
vertex -0.500000 0.250000 -0.960958
vertex -0.250000 0.000000 -1.164061
vertex -0.500000 0.000000 -0.976228
endloop
endfacet
facet normal -0.041881 0.113207 -0.992688
outer loop
vertex -0.500000 0.500000 -0.989453
vertex -0.250000 0.500000 -1.000000
vertex -0.250000 0.250000 -1.028510
endloop
endfacet
facet normal -0.259288 -0.109372 -0.959587
outer loop
vertex -0.500000 0.500000 -0.989453
vertex -0.250000 0.250000 -1.028510
vertex -0.500000 0.250000 -0.960958
endloop
endfacet
facet normal -0.220168 0.629594 -0.745076
outer loop
vertex -0.250000 0.500000 -1.000000
vertex -0.000000 0.500000 -1.073874
vertex -0.000000 0.250000 -1.285126
endloop
endfacet
facet normal -0.714022 0.079328 -0.695614
outer loop
vertex -0.250000 0.500000 -1.000000
vertex -0.000000 0.250000 -1.285126
vertex -0.250000 0.250000 -1.028510
endloop
endfacet
facet normal -0.274424 -0.174306 -0.945679
outer loop
vertex -0.500000 -0.750000 -0.749696
vertex -0.250000 -0.750000 -0.822242
vertex -0.250000 -1.000000 -0.776163
endloop
endfacet
facet normal 0.197298 0.296234 -0.934515
outer loop
vertex -0.500000 -0.750000 -0.749696
vertex -0.250000 -1.000000 -0.776163
vertex -0.500000 -1.000000 -0.828943
endloop
endfacet
facet normal -0.618748 -0.560736 -0.550205
outer loop
vertex -0.500000 -0.500000 -0.795883
vertex -0.250000 -0.500000 -1.077028
vertex -0.250000 -0.750000 -0.822242
endloop
endfacet
facet normal -0.274404 -0.174702 -0.945612
outer loop
vertex -0.500000 -0.500000 -0.795883
vertex -0.250000 -0.750000 -0.822242
vertex -0.500000 -0.750000 -0.749696
endloop
endfacet
facet normal -0.190073 -0.541742 -0.818772
outer loop
vertex -0.250000 -0.500000 -1.077028
vertex -0.000000 -0.500000 -1.135064
vertex -0.000000 -0.750000 -0.969651
endloop
endfacet
facet normal -0.381697 -0.659736 -0.647345
outer loop
vertex -0.250000 -0.500000 -1.077028
vertex -0.000000 -0.750000 -0.969651
vertex -0.250000 -0.750000 -0.822242
endloop
endfacet
facet normal -0.002496 -0.016859 -0.999855
outer loop
vertex 0.500000 -0.750000 -1.003591
vertex 0.750000 -0.750000 -1.004215
vertex 0.750000 -1.000000 -1.000000
endloop
endfacet
facet normal 0.000000 -0.014363 -0.999897
outer loop
vertex 0.500000 -0.750000 -1.003591
vertex 0.750000 -1.000000 -1.000000
vertex 0.500000 -1.000000 -1.000000
endloop
endfacet
facet normal -0.130658 -0.500728 -0.855687
outer loop
vertex 0.500000 -0.500000 -1.112336
vertex 0.750000 -0.500000 -1.150509
vertex 0.750000 -0.750000 -1.004215
endloop
endfacet
facet normal -0.002289 -0.398876 -0.917002
outer loop
vertex 0.500000 -0.500000 -1.112336
vertex 0.750000 -0.750000 -1.004215
vertex 0.500000 -0.750000 -1.003591
endloop
endfacet
facet normal 0.427791 -0.077334 -0.900563
outer loop
vertex 0.750000 -0.500000 -1.150509
vertex 1.000000 -0.500000 -1.031753
vertex 1.000000 -0.750000 -1.010285
endloop
endfacet
facet normal -0.020949 -0.504946 -0.862896
outer loop
vertex 0.750000 -0.500000 -1.150509
vertex 1.000000 -0.750000 -1.010285
vertex 0.750000 -0.750000 -1.004215
endloop
endfacet
endsolid Exported from Blender-2.82 (sub 7)
